<svg width="17" height="17" viewBox="0 0 17 17" fill="none" xmlns="http://www.w3.org/2000/svg">
<path fill-rule="evenodd" clip-rule="evenodd" d="M15.8035 0.828127H1.57348C1.45718 0.827864 1.34198 0.850575 1.23449 0.894957C1.127 0.939339 1.02933 1.00452 0.947101 1.08675C0.864869 1.16898 0.79969 1.26665 0.755308 1.37414C0.710926 1.48163 0.688215 1.59683 0.688479 1.71313V15.9431C0.688479 16.4331 1.08348 16.8281 1.57348 16.8281H9.23248V10.6311H7.14248V8.23113H9.23248V6.44813C9.23248 4.37913 10.5025 3.25913 12.3365 3.25913C13.2115 3.25913 13.9795 3.31213 14.2035 3.35513V5.51013H12.9125C11.9095 5.51013 11.7285 5.97913 11.7285 6.68313V8.23013H14.1075L13.7975 10.6301H11.7285V16.8281H15.8035C16.2935 16.8281 16.6885 16.4331 16.6885 15.9431V1.71313C16.6887 1.59683 16.666 1.48163 16.6216 1.37414C16.5773 1.26665 16.5121 1.16898 16.4299 1.08675C16.3476 1.00452 16.25 0.939339 16.1425 0.894957C16.035 0.850575 15.9198 0.827864 15.8035 0.828127Z" fill="white"/>
</svg>
