<svg width="17" height="17" viewBox="0 0 17 17" fill="none" xmlns="http://www.w3.org/2000/svg">
<path fill-rule="evenodd" clip-rule="evenodd" d="M15.5045 0.828125C16.1545 0.828125 16.6885 1.34012 16.6885 1.98012V15.6761C16.6885 16.3061 16.1555 16.8281 15.5045 16.8281H1.87248C1.22248 16.8281 0.688477 16.3051 0.688477 15.6761V1.98012C0.688477 1.34012 1.22148 0.828125 1.87248 0.828125H15.5045ZM4.25148 5.78813C4.61144 5.77844 4.95341 5.62864 5.20458 5.37061C5.45576 5.11259 5.5963 4.76672 5.5963 4.40663C5.5963 4.04653 5.45576 3.70066 5.20458 3.44264C4.95341 3.18461 4.61144 3.03481 4.25148 3.02513C3.48348 3.02513 2.87548 3.64412 2.87548 4.40112C2.87548 5.16913 3.48348 5.78813 4.25148 5.78813ZM14.3205 10.2781C14.3205 8.22012 13.8835 6.64113 11.4725 6.64113C10.3205 6.64113 9.55248 7.27112 9.23248 7.86812H9.20048V6.82312H6.92848V14.4601H9.29648V10.6841C9.29648 9.69213 9.47748 8.72113 10.7155 8.72113C11.9315 8.72113 11.9525 9.86312 11.9525 10.7481V14.4601H14.3205V10.2781ZM3.05648 14.4611H5.43548V6.82312H3.05648V14.4611Z" fill="white"/>
</svg>
