<svg width="20" height="17" viewBox="0 0 20 17" fill="none" xmlns="http://www.w3.org/2000/svg">
<path d="M19.6886 2.72166C18.9643 3.04351 18.1871 3.26074 17.3686 3.35736C18.2025 2.85766 18.8431 2.06628 19.1452 1.12351C18.3637 1.58505 17.5003 1.92351 16.5803 2.1032C15.8431 1.31859 14.7932 0.828125 13.6314 0.828125C11.4 0.828125 9.59262 2.63612 9.59262 4.86689C9.59262 5.1832 9.62769 5.49212 9.69723 5.78751C6.33908 5.61766 3.36308 4.00966 1.37108 1.56659C1.02338 2.16351 0.823385 2.85766 0.823385 3.59736C0.823385 5.00043 1.53723 6.23551 2.62031 6.96043C1.95815 6.93889 1.33538 6.75736 0.790769 6.45582V6.50505C0.790769 8.4632 2.18154 10.0958 4.03015 10.4669C3.69169 10.5592 3.33477 10.6084 2.96554 10.6084C2.70523 10.6084 2.45292 10.5838 2.20677 10.5364C2.72 12.1401 4.21292 13.3081 5.97908 13.3414C4.59754 14.4244 2.856 15.0706 0.963692 15.0706C0.637539 15.0706 0.315692 15.0521 0 15.0152C1.78831 16.1598 3.91139 16.8281 6.19262 16.8281C13.6215 16.8281 17.6849 10.6743 17.6849 5.33582C17.6849 5.16105 17.68 4.98628 17.6726 4.81274C18.4622 4.24351 19.1465 3.53274 19.6886 2.72166Z" fill="white"/>
</svg>
